<svg width="512" height="512" xmlns="http://www.w3.org/2000/svg">

 <g>
  <title>background</title>
  <rect fill="none" id="canvas_background" height="402" width="582" y="-1" x="-1"/>
 </g>
 <g>
  <title>Layer 1</title>
  <path id="svg_1" d="m301,256c0,24.85156 -20.14844,45 -45,45s-45,-20.14844 -45,-45s20.14844,-45 45,-45s45,20.14844 45,45zm0,0"/>
  <path fill="#000000" id="svg_2" d="m332,120l-152,0c-33.08594,0 -60,26.91406 -60,60l0,152c0,33.08594 26.91406,60 60,60l152,0c33.08594,0 60,-26.91406 60,-60l0,-152c0,-33.08594 -26.91406,-60 -60,-60zm-76,211c-41.35547,0 -75,-33.64453 -75,-75s33.64453,-75 75,-75s75,33.64453 75,75s-33.64453,75 -75,75zm86,-146c-8.28516,0 -15,-6.71484 -15,-15s6.71484,-15 15,-15s15,6.71484 15,15s-6.71484,15 -15,15zm0,0"/>
  <path fill="#000000" id="svg_3" d="m377,0l-242,0c-74.4375,0 -135,60.5625 -135,135l0,242c0,74.4375 60.5625,135 135,135l242,0c74.4375,0 135,-60.5625 135,-135l0,-242c0,-74.4375 -60.5625,-135 -135,-135zm45,332c0,49.625 -40.375,90 -90,90l-152,0c-49.625,0 -90,-40.375 -90,-90l0,-152c0,-49.625 40.375,-90 90,-90l152,0c49.625,0 90,40.375 90,90l0,152zm0,0"/>
  <rect id="svg_4" height="196" width="170" y="-50.546875" x="-120.5" stroke-width="1.5" stroke="#fff" fill="#000"/>
  <rect id="svg_5" height="133" width="182" y="-88.546875" x="4.5" stroke-width="1.5" stroke="#fff" fill="#000"/>
  <rect id="svg_7" height="197" width="96" y="-20.546875" x="-29.5" stroke-width="0" stroke="#fff" fill="#000"/>
  <rect id="svg_8" height="101" width="191" y="-40.546875" x="48.5" stroke-width="0" stroke="#fff" fill="#000"/>
  <rect id="svg_9" height="74" width="244" y="-27.546875" x="321.5" stroke-width="0" stroke="#fff" fill="#000"/>
  <rect id="svg_10" height="107" width="120" y="18.453125" x="487.5" stroke-width="0" stroke="#fff" fill="#000"/>
  <rect id="svg_11" height="114" width="149" y="-30.546875" x="395.5" stroke-width="0" stroke="#fff" fill="#000"/>
  <rect id="svg_12" height="241" width="157" y="296.453125" x="478.5" stroke-width="0" stroke="#fff" fill="#000"/>
  <rect id="svg_13" height="109" width="168" y="471.453125" x="360.5" stroke-width="0" stroke="#fff" fill="#000"/>
  <rect id="svg_14" height="36" width="183" y="470.453125" x="428.5" stroke-width="0" stroke="#fff" fill="#000"/>
  <rect id="svg_15" height="126" width="93" y="381.453125" x="455.5" stroke-width="0" stroke="#fff" fill="#000"/>
  <rect id="svg_16" height="285" width="124" y="48.453125" x="486.5" stroke-width="0" stroke="#fff" fill="#000"/>
  <rect id="svg_17" height="163" width="378" y="487.453125" x="-178.5" stroke-width="0" stroke="#fff" fill="#000"/>
  <rect id="svg_19" height="368" width="90" y="147.453125" x="-59.5" stroke-width="0" stroke="#fff" fill="#000"/>
  <rect id="svg_21" height="90" width="71" y="431.453125" x="6.5" stroke-width="5" fill="#000000"/>
 </g>
</svg>